<?xml version="1.0" encoding="UTF-8"?>
<svg id="Layer_1" data-name="Layer 1" xmlns="http://www.w3.org/2000/svg" viewBox="0 0 75.37 54.06">
  <defs>
    <style>
      .cls-1 {
        fill: #f1c512;
        stroke-width: 0px;
      }
    </style>
  </defs>
  <path class="cls-1" d="M40.47.74l3.23,9.24c.12.33.43.56.78.57l9.79.21c.8.02,1.13,1.03.49,1.52l-7.79,5.93c-.28.21-.4.58-.3.92l2.82,9.38c.23.77-.63,1.39-1.29.94l-8.04-5.58c-.29-.2-.67-.2-.96,0l-8.04,5.58c-.66.46-1.52-.17-1.29-.94l2.82-9.38c.1-.34-.02-.7-.3-.92l-7.79-5.93c-.64-.48-.31-1.5.49-1.52l9.79-.21c.35,0,.66-.23.78-.57l3.23-9.24c.26-.75,1.33-.75,1.59,0Z"/>
  <path class="cls-1" d="M16.34,24.87l3.23,9.24c.12.33.43.56.78.57l9.79.21c.8.02,1.13,1.03.49,1.52l-7.79,5.93c-.28.21-.4.58-.3.92l2.82,9.38c.23.77-.63,1.39-1.29.94l-8.04-5.58c-.29-.2-.67-.2-.96,0l-8.04,5.58c-.66.46-1.52-.17-1.29-.94l2.82-9.38c.1-.34-.02-.7-.3-.92L.46,36.41c-.64-.48-.31-1.5.49-1.52l9.79-.21c.35,0,.66-.23.78-.57l3.23-9.24c.26-.75,1.33-.75,1.59,0Z"/>
  <path class="cls-1" d="M60.82,24.87l3.23,9.24c.12.33.43.56.78.57l9.79.21c.8.02,1.13,1.03.49,1.52l-7.79,5.93c-.28.21-.4.58-.3.92l2.82,9.38c.23.77-.63,1.39-1.29.94l-8.04-5.58c-.29-.2-.67-.2-.96,0l-8.04,5.58c-.66.46-1.52-.17-1.29-.94l2.82-9.38c.1-.34-.02-.7-.3-.92l-7.79-5.93c-.64-.48-.31-1.5.49-1.52l9.79-.21c.35,0,.66-.23.78-.57l3.23-9.24c.26-.75,1.33-.75,1.59,0Z"/>
</svg>