<?xml version="1.0" encoding="UTF-8"?>
<svg id="Layer_1" data-name="Layer 1" xmlns="http://www.w3.org/2000/svg" viewBox="0 0 37.93 35.8">
  <defs>
    <style>
      .cls-1 {
        fill: currentColor;
        stroke-width: 0px;
      }
    </style>
  </defs>
  <path class="cls-1" d="M19.67.84l4.08,11.68c.1.29.38.49.69.5l12.36.27c.7.02,1,.91.43,1.34l-9.85,7.48c-.25.19-.35.51-.26.81l3.57,11.84c.2.68-.56,1.23-1.14.83l-10.16-7.05c-.26-.18-.59-.18-.85,0l-10.16,7.05c-.58.4-1.34-.15-1.14-.83l3.57-11.84c.09-.3-.01-.62-.26-.81L.7,14.62c-.56-.43-.27-1.32.43-1.34l12.36-.27c.31,0,.58-.21.69-.5L18.26.84c.23-.67,1.17-.67,1.41,0Z"/>
</svg>