<?xml version="1.0" encoding="UTF-8"?>
<svg id="Layer_1" data-name="Layer 1" xmlns="http://www.w3.org/2000/svg" viewBox="0 0 59.94 40.35">
  <defs>
    <style>
      .cls-1 {
        fill: #000;
        stroke-width: 0px;
      }
    </style>
  </defs>
  <path class="cls-1" d="M44.1,15.17l2.14,6.12c.39,1.11,1.44,1.88,2.62,1.91l6.48.14-5.16,3.92c-.94.71-1.34,1.95-1,3.08l1.87,6.2-5.32-3.69c-.48-.33-1.04-.51-1.62-.51s-1.14.18-1.62.51l-5.32,3.69,1.87-6.2c.34-1.13-.06-2.37-1-3.08l-5.16-3.92,6.48-.14c1.18-.03,2.23-.79,2.62-1.91l2.14-6.12M44.1,10.82c-.33,0-.67.19-.8.57l-3.23,9.24c-.12.33-.43.56-.78.57l-9.79.21c-.8.02-1.13,1.03-.49,1.52l7.79,5.93c.28.21.4.58.3.92l-2.82,9.38c-.18.59.29,1.09.81,1.09.16,0,.33-.05.48-.15l8.04-5.58c.14-.1.31-.15.48-.15s.34.05.48.15l8.04,5.58c.15.11.32.15.48.15.52,0,.99-.5.81-1.09l-2.82-9.38c-.1-.34.02-.7.3-.92l7.79-5.93c.64-.48.31-1.5-.49-1.52l-9.79-.21c-.35,0-.66-.23-.78-.57l-3.23-9.24c-.13-.38-.46-.57-.8-.57h0Z"/>
  <path class="cls-1" d="M15.52,4.35l2.14,6.12c.39,1.11,1.44,1.88,2.62,1.91l6.48.14-5.16,3.92c-.94.71-1.34,1.95-1,3.08l1.87,6.2-5.32-3.69c-.48-.33-1.04-.51-1.62-.51s-1.14.18-1.62.51l-5.32,3.69,1.87-6.2c.34-1.13-.06-2.37-1-3.08l-5.16-3.92,6.48-.14c1.18-.03,2.23-.79,2.62-1.91l2.14-6.12M15.52,0c-.33,0-.67.19-.8.57l-3.23,9.24c-.12.33-.43.56-.78.57l-9.79.21c-.8.02-1.13,1.03-.49,1.52l7.79,5.93c.28.21.4.58.3.92l-2.82,9.38c-.18.59.29,1.09.81,1.09.16,0,.32-.05.48-.15l8.04-5.58c.14-.1.31-.15.48-.15s.34.05.48.15l8.04,5.58c.15.11.32.15.48.15.52,0,.99-.5.81-1.09l-2.82-9.38c-.1-.34.02-.7.3-.92l7.79-5.93c.64-.48.31-1.5-.49-1.52l-9.79-.21c-.35,0-.66-.23-.78-.57L16.32.56c-.13-.38-.46-.57-.8-.57h0Z"/>
</svg>